<?xml version="1.0" encoding="UTF-8"?>
<svg xmlns="http://www.w3.org/2000/svg" width="2000" height="800" viewBox="0 0 2000 800"><defs>
      <linearGradient id="coreGrad" x1="0%" y1="0%" x2="100%" y2="100%">
        <stop offset="0%" stop-color="#2563EB"/><stop offset="50%" stop-color="#3B82F6"/><stop offset="100%" stop-color="#22D3EE"/>
      </linearGradient>
      <linearGradient id="pillarGrad" x1="0%" y1="0%" x2="100%" y2="100%">
        <stop offset="0%" stop-color="#67E8F9"/><stop offset="55%" stop-color="#22D3EE"/><stop offset="100%" stop-color="#14B8A6"/>
      </linearGradient>
      <linearGradient id="tileGrad" x1="0%" y1="0%" x2="100%" y2="100%">
        <stop offset="0%" stop-color="#172554"/><stop offset="45%" stop-color="#0F172A"/><stop offset="100%" stop-color="#020617"/>
      </linearGradient>
      <filter id="softShadow" x="-30%" y="-30%" width="160%" height="160%"><feGaussianBlur in="SourceAlpha" stdDeviation="18" result="blur"/><feOffset dy="16" result="off"/><feColorMatrix in="off" type="matrix" values="0 0 0 0 0.05 0 0 0 0 0.15 0 0 0 0 0.45 0 0 0 .45 0"/><feMerge><feMergeNode/><feMergeNode in="SourceGraphic"/></feMerge></filter>
    </defs><g transform="translate(90,40) scale(0.68)">
      <path d="M 760 250 L 500 100 L 240 250 L 240 750 L 500 900 L 760 750" fill="none" stroke="url(#coreGrad)" stroke-width="104" stroke-linejoin="miter" stroke-linecap="square"/>
      <path d="M 470 365 L 520 325 L 570 365 L 570 690 L 675 628 L 675 735 L 520 825 L 470 795 Z" fill="url(#pillarGrad)"/>
    </g><g fill="#0F172A"><path d="M776 -24C1101 -24 1353 177 1404 494H1179C1132 292 980 179 778 179C484 179 304 407 304 744C304 1083 484 1311 778 1311C981 1311 1134 1197 1178 994H1404C1352 1312 1101 1514 776 1514C364 1514 81 1203 81 744C81 288 365 -24 776 -24Z" transform="translate(780.000,340.000) scale(0.069336,-0.069336)"/><path d="M766 -24C1163 -24 1452 288 1452 744C1452 1202 1163 1514 766 1514C369 1514 81 1202 81 744C81 289 369 -24 766 -24ZM766 179C509 179 304 381 304 744C304 1109 509 1311 766 1311C1023 1311 1229 1109 1229 744C1229 381 1023 179 766 179Z" transform="translate(900.756,340.000) scale(0.069336,-0.069336)"/><path d="M136 0H358V564H688C691 564 695 564 698 564L995 0H1245L923 601C1109 668 1222 818 1222 1026C1222 1311 1022 1490 703 1490H136ZM358 753V1298H693C885 1298 1003 1194 1003 1026C1003 858 886 753 694 753Z" transform="translate(1025.048,340.000) scale(0.069336,-0.069336)"/><path d="M136 0H1138V195H358V663H1080V856H358V1295H1138V1490H136Z" transform="translate(1133.670,340.000) scale(0.069336,-0.069336)"/><path d="M136 0H1063V195H358V1490H136Z" transform="translate(1235.289,340.000) scale(0.069336,-0.069336)"/><path d="M358 1490H136V0H358Z" transform="translate(1330.321,340.000) scale(0.069336,-0.069336)"/><path d="M48 1295H523V0H746V1295H1219V1490H48Z" transform="translate(1382.573,340.000) scale(0.069336,-0.069336)"/><path d="M136 0H358V665H1099V0H1321V1490H1099V859H358V1490H136Z" transform="translate(1488.422,340.000) scale(0.069336,-0.069336)"/></g><g fill="#0891B2"><path d="M98 1322H567V0H757V1322H1224V1490H98Z" transform="translate(780.000,432.000) scale(0.021484,-0.021484)"/><path d="M180 0H1097V168H370V668H1039V836H370V1322H1088V1490H180Z" transform="translate(826.402,432.000) scale(0.021484,-0.021484)"/><path d="M783 -20C1088 -20 1332 166 1384 469H1194C1152 266 978 156 783 156C516 156 307 363 307 744C307 1126 515 1334 783 1334C977 1334 1152 1225 1194 1021H1384C1331 1328 1085 1510 783 1510C401 1510 122 1217 122 744C122 272 401 -20 783 -20Z" transform="translate(870.850,432.000) scale(0.021484,-0.021484)"/><path d="M180 0H370V678H1152V0H1342V1490H1152V846H370V1490H180Z" transform="translate(920.990,432.000) scale(0.021484,-0.021484)"/><path d="M180 0H371V850C371 922 364 1071 356 1262C472 1055 529 955 597 848L1137 0H1363V1490H1173V576C1173 496 1174 369 1186 225C1118 360 1050 474 1010 537L404 1490H180Z" transform="translate(971.689,432.000) scale(0.021484,-0.021484)"/><path d="M784 -20C1166 -20 1444 272 1444 744C1444 1217 1166 1510 784 1510C402 1510 122 1217 122 744C122 272 402 -20 784 -20ZM784 156C516 156 307 364 307 744C307 1126 516 1334 784 1334C1050 1334 1259 1127 1259 744C1259 363 1050 156 784 156Z" transform="translate(1022.840,432.000) scale(0.021484,-0.021484)"/><path d="M180 0H1060V168H370V1490H180Z" transform="translate(1074.484,432.000) scale(0.021484,-0.021484)"/><path d="M784 -20C1166 -20 1444 272 1444 744C1444 1217 1166 1510 784 1510C402 1510 122 1217 122 744C122 272 402 -20 784 -20ZM784 156C516 156 307 364 307 744C307 1126 516 1334 784 1334C1050 1334 1259 1127 1259 744C1259 363 1050 156 784 156Z" transform="translate(1117.363,432.000) scale(0.021484,-0.021484)"/><path d="M789 -20C1144 -20 1400 216 1400 586V749H828V583H1214C1209 321 1038 156 789 156C515 156 307 364 307 744C307 1127 516 1334 778 1334C989 1334 1132 1214 1193 1023H1389C1335 1312 1092 1510 777 1510C395 1510 122 1217 122 744C122 273 391 -20 789 -20Z" transform="translate(1169.008,432.000) scale(0.021484,-0.021484)"/><path d="M370 1490H180V0H370Z" transform="translate(1219.836,432.000) scale(0.021484,-0.021484)"/><path d="M180 0H1097V168H370V668H1039V836H370V1322H1088V1490H180Z" transform="translate(1249.652,432.000) scale(0.021484,-0.021484)"/><path d="M657 -26C1001 -26 1198 162 1198 406C1198 684 936 774 776 818L627 859C518 889 343 944 343 1100C343 1240 471 1342 664 1342C841 1342 975 1259 992 1114H1178C1169 1339 964 1510 670 1510C382 1510 158 1343 158 1091C158 893 298 770 538 702L718 651C877 606 1013 553 1013 409C1013 250 859 144 657 144C482 144 326 221 311 390H116C133 140 334 -26 657 -26Z" transform="translate(1294.100,432.000) scale(0.021484,-0.021484)"/></g></svg>